<mxfile host="Electron" modified="2023-09-12T06:58:10.032Z" agent="Mozilla/5.0 (Windows NT 10.0; Win64; x64) AppleWebKit/537.36 (KHTML, like Gecko) draw.io/21.6.8 Chrome/114.0.5735.289 Electron/25.5.0 Safari/537.36" etag="rAHOryVQlwAz4WaprzXw" version="21.6.8" type="device">
  <diagram name="第 1 页" id="uirj7UwnjHAc908DG9zA">
    <mxGraphModel dx="2336" dy="2100" grid="1" gridSize="10" guides="1" tooltips="1" connect="1" arrows="1" fold="1" page="1" pageScale="1" pageWidth="827" pageHeight="1169" math="0" shadow="0">
      <root>
        <mxCell id="0" />
        <mxCell id="1" parent="0" />
        <mxCell id="dyWYNJhs5rQ-Xx7Hmsq4-12" value="" style="group" vertex="1" connectable="0" parent="1">
          <mxGeometry x="-40" y="330" width="355" height="150" as="geometry" />
        </mxCell>
        <mxCell id="dyWYNJhs5rQ-Xx7Hmsq4-3" value="Execution Engine" style="rounded=1;whiteSpace=wrap;html=1;fillColor=#eeeeee;strokeColor=#36393d;verticalAlign=top;fontSize=22;movable=1;resizable=1;rotatable=1;deletable=1;editable=1;locked=0;connectable=1;" vertex="1" parent="dyWYNJhs5rQ-Xx7Hmsq4-12">
          <mxGeometry width="355" height="150" as="geometry" />
        </mxCell>
        <mxCell id="dyWYNJhs5rQ-Xx7Hmsq4-10" value="&lt;font style=&quot;font-size: 14px;&quot;&gt;JITCompiler&lt;/font&gt;" style="rounded=1;whiteSpace=wrap;html=1;fillColor=#f5f5f5;gradientColor=#b3b3b3;strokeColor=#666666;container=0;movable=1;resizable=1;rotatable=1;deletable=1;editable=1;locked=0;connectable=1;" vertex="1" parent="dyWYNJhs5rQ-Xx7Hmsq4-12">
          <mxGeometry x="15" y="60" width="148.24" height="70" as="geometry" />
        </mxCell>
        <mxCell id="dyWYNJhs5rQ-Xx7Hmsq4-11" value="&lt;font style=&quot;font-size: 14px;&quot;&gt;Garbage Collection&lt;/font&gt;" style="rounded=1;whiteSpace=wrap;html=1;fillColor=#f5f5f5;gradientColor=#b3b3b3;strokeColor=#666666;container=0;movable=1;resizable=1;rotatable=1;deletable=1;editable=1;locked=0;connectable=1;" vertex="1" parent="dyWYNJhs5rQ-Xx7Hmsq4-12">
          <mxGeometry x="185" y="60" width="148.24" height="70" as="geometry" />
        </mxCell>
        <mxCell id="dyWYNJhs5rQ-Xx7Hmsq4-13" value="" style="group;verticalAlign=middle;fillColor=#e1d5e7;strokeColor=#9673a6;" vertex="1" connectable="0" parent="1">
          <mxGeometry x="370" y="330" width="240" height="80" as="geometry" />
        </mxCell>
        <mxCell id="dyWYNJhs5rQ-Xx7Hmsq4-14" value="Java Native Interface" style="rounded=1;whiteSpace=wrap;html=1;fillColor=#e1d5e7;strokeColor=#9673a6;verticalAlign=middle;fontSize=22;movable=1;resizable=1;rotatable=1;deletable=1;editable=1;locked=0;connectable=1;" vertex="1" parent="dyWYNJhs5rQ-Xx7Hmsq4-13">
          <mxGeometry width="240.00000000000003" height="80" as="geometry" />
        </mxCell>
        <mxCell id="dyWYNJhs5rQ-Xx7Hmsq4-17" value="Java Native Libraries" style="rounded=1;whiteSpace=wrap;html=1;fillColor=#e1d5e7;strokeColor=#9673a6;verticalAlign=middle;fontSize=22;movable=1;resizable=1;rotatable=1;deletable=1;editable=1;locked=0;connectable=1;" vertex="1" parent="1">
          <mxGeometry x="740" y="330" width="240.00000000000003" height="80" as="geometry" />
        </mxCell>
        <mxCell id="dyWYNJhs5rQ-Xx7Hmsq4-21" value="" style="shape=flexArrow;endArrow=classic;startArrow=classic;html=1;rounded=0;fillColor=#FFB570;strokeColor=none;entryX=0.234;entryY=1.006;entryDx=0;entryDy=0;entryPerimeter=0;exitX=0.465;exitY=0;exitDx=0;exitDy=0;exitPerimeter=0;" edge="1" parent="1">
          <mxGeometry width="100" height="100" relative="1" as="geometry">
            <mxPoint x="121.27499999999982" y="330" as="sourcePoint" />
            <mxPoint x="119.99999999999973" y="242.58000000000015" as="targetPoint" />
          </mxGeometry>
        </mxCell>
        <mxCell id="dyWYNJhs5rQ-Xx7Hmsq4-22" value="Class Loader Subsystem" style="rounded=1;whiteSpace=wrap;html=1;fillColor=#0050ef;strokeColor=#001DBC;verticalAlign=middle;fontSize=22;movable=1;resizable=1;rotatable=1;deletable=1;editable=1;locked=0;connectable=1;fontColor=#ffffff;" vertex="1" parent="1">
          <mxGeometry x="770" y="-100" width="240.00000000000003" height="80" as="geometry" />
        </mxCell>
        <mxCell id="dyWYNJhs5rQ-Xx7Hmsq4-23" value="" style="shape=flexArrow;endArrow=classic;startArrow=classic;html=1;rounded=0;fillColor=#FFB570;strokeColor=none;" edge="1" parent="1">
          <mxGeometry width="100" height="100" relative="1" as="geometry">
            <mxPoint x="480.43" y="330" as="sourcePoint" />
            <mxPoint x="480" y="240" as="targetPoint" />
          </mxGeometry>
        </mxCell>
        <mxCell id="dyWYNJhs5rQ-Xx7Hmsq4-24" value="" style="shape=flexArrow;endArrow=classic;startArrow=classic;html=1;rounded=0;fillColor=#FFB570;strokeColor=none;exitX=1;exitY=0.5;exitDx=0;exitDy=0;" edge="1" parent="1" source="dyWYNJhs5rQ-Xx7Hmsq4-14">
          <mxGeometry width="100" height="100" relative="1" as="geometry">
            <mxPoint x="630" y="369.47" as="sourcePoint" />
            <mxPoint x="740" y="369.47" as="targetPoint" />
          </mxGeometry>
        </mxCell>
        <mxCell id="dyWYNJhs5rQ-Xx7Hmsq4-25" value="" style="shape=flexArrow;endArrow=classic;startArrow=classic;html=1;rounded=0;fillColor=#FFB570;strokeColor=none;" edge="1" parent="1">
          <mxGeometry width="100" height="100" relative="1" as="geometry">
            <mxPoint x="660" y="-60.91" as="sourcePoint" />
            <mxPoint x="770" y="-60.91" as="targetPoint" />
          </mxGeometry>
        </mxCell>
        <mxCell id="sFHfNvW3am0BZzK_AOpW-1" value="&lt;font style=&quot;font-size: 24px;&quot;&gt;Runtime Data Area&lt;/font&gt;" style="rounded=1;whiteSpace=wrap;html=1;fillColor=#eeeeee;strokeColor=#36393d;verticalAlign=top;" parent="1" vertex="1">
          <mxGeometry x="-40" y="-190" width="700" height="430" as="geometry" />
        </mxCell>
        <mxCell id="sFHfNvW3am0BZzK_AOpW-21" value="" style="group" parent="1" vertex="1" connectable="0">
          <mxGeometry x="260" y="-130" width="320" height="340" as="geometry" />
        </mxCell>
        <mxCell id="sFHfNvW3am0BZzK_AOpW-5" value="&lt;font style=&quot;font-size: 16px;&quot;&gt;VM Stack&lt;/font&gt;" style="rounded=1;whiteSpace=wrap;html=1;fillStyle=auto;horizontal=1;verticalAlign=top;fillColor=#fff2cc;gradientColor=#ffd966;strokeColor=#d6b656;" parent="sFHfNvW3am0BZzK_AOpW-21" vertex="1">
          <mxGeometry width="170" height="290" as="geometry" />
        </mxCell>
        <mxCell id="sFHfNvW3am0BZzK_AOpW-17" value="" style="group" parent="sFHfNvW3am0BZzK_AOpW-21" vertex="1" connectable="0">
          <mxGeometry x="25" y="40" width="120" height="130" as="geometry" />
        </mxCell>
        <mxCell id="sFHfNvW3am0BZzK_AOpW-10" value="&lt;span style=&quot;color: rgb(77, 81, 86); font-family: arial, sans-serif; font-size: 14px; font-style: normal; font-variant-ligatures: normal; font-variant-caps: normal; font-weight: 400; letter-spacing: normal; orphans: 2; text-align: left; text-indent: 0px; text-transform: none; widows: 2; word-spacing: 0px; -webkit-text-stroke-width: 0px; text-decoration-thickness: initial; text-decoration-style: initial; text-decoration-color: initial; float: none; display: inline !important;&quot;&gt;Stack Frame&lt;/span&gt;" style="rounded=0;whiteSpace=wrap;html=1;fillColor=#d5e8d4;gradientColor=#97d077;strokeColor=#82b366;labelBackgroundColor=none;verticalAlign=top;" parent="sFHfNvW3am0BZzK_AOpW-17" vertex="1">
          <mxGeometry width="120" height="130" as="geometry" />
        </mxCell>
        <mxCell id="sFHfNvW3am0BZzK_AOpW-16" value="" style="group;labelBackgroundColor=none;fillColor=#dae8fc;strokeColor=#6c8ebf;gradientColor=#7ea6e0;" parent="sFHfNvW3am0BZzK_AOpW-17" vertex="1" connectable="0">
          <mxGeometry x="15" y="30" width="90" height="80" as="geometry" />
        </mxCell>
        <mxCell id="sFHfNvW3am0BZzK_AOpW-11" value="&lt;div style=&quot;text-align: left;&quot;&gt;&lt;font size=&quot;1&quot; face=&quot;arial, sans-serif&quot; color=&quot;#4d5156&quot;&gt;&lt;span style=&quot;font-size: 12px;&quot;&gt;局部变量表&lt;/span&gt;&lt;/font&gt;&lt;/div&gt;" style="rounded=0;whiteSpace=wrap;html=1;labelBackgroundColor=none;fillColor=#dae8fc;strokeColor=#6c8ebf;gradientColor=#7ea6e0;" parent="sFHfNvW3am0BZzK_AOpW-16" vertex="1">
          <mxGeometry width="90" height="20" as="geometry" />
        </mxCell>
        <mxCell id="sFHfNvW3am0BZzK_AOpW-12" value="&lt;div style=&quot;text-align: left;&quot;&gt;&lt;font size=&quot;1&quot; face=&quot;arial, sans-serif&quot; color=&quot;#4d5156&quot;&gt;&lt;span style=&quot;font-size: 12px;&quot;&gt;操作数栈&lt;/span&gt;&lt;/font&gt;&lt;/div&gt;" style="rounded=0;whiteSpace=wrap;html=1;labelBackgroundColor=none;fillColor=#dae8fc;strokeColor=#6c8ebf;gradientColor=#7ea6e0;" parent="sFHfNvW3am0BZzK_AOpW-16" vertex="1">
          <mxGeometry y="20" width="90" height="20" as="geometry" />
        </mxCell>
        <mxCell id="sFHfNvW3am0BZzK_AOpW-13" value="&lt;div style=&quot;text-align: left;&quot;&gt;&lt;font size=&quot;1&quot; face=&quot;arial, sans-serif&quot; color=&quot;#4d5156&quot;&gt;&lt;span style=&quot;font-size: 12px;&quot;&gt;动态链接&lt;/span&gt;&lt;/font&gt;&lt;/div&gt;" style="rounded=0;whiteSpace=wrap;html=1;labelBackgroundColor=none;fillColor=#dae8fc;strokeColor=#6c8ebf;gradientColor=#7ea6e0;" parent="sFHfNvW3am0BZzK_AOpW-16" vertex="1">
          <mxGeometry y="40" width="90" height="20" as="geometry" />
        </mxCell>
        <mxCell id="sFHfNvW3am0BZzK_AOpW-14" value="&lt;div style=&quot;text-align: left;&quot;&gt;&lt;font size=&quot;1&quot; face=&quot;arial, sans-serif&quot; color=&quot;#4d5156&quot;&gt;&lt;span style=&quot;font-size: 12px;&quot;&gt;方法出口&lt;/span&gt;&lt;/font&gt;&lt;/div&gt;" style="rounded=0;whiteSpace=wrap;html=1;labelBackgroundColor=none;fillColor=#dae8fc;strokeColor=#6c8ebf;gradientColor=#7ea6e0;" parent="sFHfNvW3am0BZzK_AOpW-16" vertex="1">
          <mxGeometry y="60" width="90" height="20" as="geometry" />
        </mxCell>
        <mxCell id="sFHfNvW3am0BZzK_AOpW-18" value="&lt;span style=&quot;color: rgb(77, 81, 86); font-family: arial, sans-serif; font-size: 14px; font-style: normal; font-variant-ligatures: normal; font-variant-caps: normal; font-weight: 400; letter-spacing: normal; orphans: 2; text-align: left; text-indent: 0px; text-transform: none; widows: 2; word-spacing: 0px; -webkit-text-stroke-width: 0px; text-decoration-thickness: initial; text-decoration-style: initial; text-decoration-color: initial; float: none; display: inline !important;&quot;&gt;Stack Frame&lt;/span&gt;" style="rounded=0;whiteSpace=wrap;html=1;fillColor=#d5e8d4;gradientColor=#97d077;strokeColor=#82b366;labelBackgroundColor=none;verticalAlign=top;" parent="sFHfNvW3am0BZzK_AOpW-21" vertex="1">
          <mxGeometry x="25" y="170" width="120" height="30" as="geometry" />
        </mxCell>
        <mxCell id="sFHfNvW3am0BZzK_AOpW-19" value="&lt;span style=&quot;color: rgb(77, 81, 86); font-family: arial, sans-serif; font-size: 14px; font-style: normal; font-variant-ligatures: normal; font-variant-caps: normal; font-weight: 400; letter-spacing: normal; orphans: 2; text-align: left; text-indent: 0px; text-transform: none; widows: 2; word-spacing: 0px; -webkit-text-stroke-width: 0px; text-decoration-thickness: initial; text-decoration-style: initial; text-decoration-color: initial; float: none; display: inline !important;&quot;&gt;Stack Frame&lt;/span&gt;" style="rounded=0;whiteSpace=wrap;html=1;fillColor=#d5e8d4;gradientColor=#97d077;strokeColor=#82b366;labelBackgroundColor=none;verticalAlign=top;" parent="sFHfNvW3am0BZzK_AOpW-21" vertex="1">
          <mxGeometry x="25" y="200" width="120" height="30" as="geometry" />
        </mxCell>
        <mxCell id="sFHfNvW3am0BZzK_AOpW-20" value="&lt;span style=&quot;color: rgb(77, 81, 86); font-family: arial, sans-serif; font-size: 14px; font-style: normal; font-variant-ligatures: normal; font-variant-caps: normal; font-weight: 400; letter-spacing: normal; orphans: 2; text-align: left; text-indent: 0px; text-transform: none; widows: 2; word-spacing: 0px; -webkit-text-stroke-width: 0px; text-decoration-thickness: initial; text-decoration-style: initial; text-decoration-color: initial; float: none; display: inline !important;&quot;&gt;Stack Frame&lt;/span&gt;" style="rounded=0;whiteSpace=wrap;html=1;fillColor=#d5e8d4;gradientColor=#97d077;strokeColor=#82b366;labelBackgroundColor=none;verticalAlign=top;" parent="sFHfNvW3am0BZzK_AOpW-21" vertex="1">
          <mxGeometry x="25" y="230" width="120" height="30" as="geometry" />
        </mxCell>
        <mxCell id="sFHfNvW3am0BZzK_AOpW-7" value="&lt;font style=&quot;font-size: 16px;&quot;&gt;Program Counter Register&lt;/font&gt;" style="rounded=1;whiteSpace=wrap;html=1;fillStyle=auto;horizontal=1;verticalAlign=top;fillColor=#fff2cc;gradientColor=#ffd966;strokeColor=#d6b656;" parent="sFHfNvW3am0BZzK_AOpW-21" vertex="1">
          <mxGeometry x="70" y="310" width="250" height="30" as="geometry" />
        </mxCell>
        <mxCell id="sFHfNvW3am0BZzK_AOpW-28" value="" style="group" parent="1" vertex="1" connectable="0">
          <mxGeometry x="-20" width="230" height="210" as="geometry" />
        </mxCell>
        <mxCell id="sFHfNvW3am0BZzK_AOpW-4" value="&lt;font style=&quot;font-size: 16px;&quot;&gt;Heap&lt;/font&gt;" style="rounded=1;whiteSpace=wrap;html=1;fillStyle=auto;horizontal=1;verticalAlign=top;fillColor=#dae8fc;gradientColor=#7ea6e0;strokeColor=#6c8ebf;" parent="sFHfNvW3am0BZzK_AOpW-28" vertex="1">
          <mxGeometry width="230" height="210" as="geometry" />
        </mxCell>
        <mxCell id="sFHfNvW3am0BZzK_AOpW-26" value="&lt;font style=&quot;font-size: 14px;&quot;&gt;Old&lt;/font&gt;" style="rounded=0;whiteSpace=wrap;html=1;fillColor=#ffcd28;gradientColor=#ffa500;strokeColor=#d79b00;" parent="sFHfNvW3am0BZzK_AOpW-28" vertex="1">
          <mxGeometry x="20" y="110" width="190" height="75" as="geometry" />
        </mxCell>
        <mxCell id="sFHfNvW3am0BZzK_AOpW-27" value="" style="group" parent="sFHfNvW3am0BZzK_AOpW-28" vertex="1" connectable="0">
          <mxGeometry x="20" y="40" width="190" height="40" as="geometry" />
        </mxCell>
        <mxCell id="sFHfNvW3am0BZzK_AOpW-22" value="&lt;font style=&quot;font-size: 14px;&quot;&gt;Eden&lt;/font&gt;" style="rounded=0;whiteSpace=wrap;html=1;fillColor=#ffcd28;gradientColor=#ffa500;strokeColor=#d79b00;" parent="sFHfNvW3am0BZzK_AOpW-27" vertex="1">
          <mxGeometry width="110" height="40" as="geometry" />
        </mxCell>
        <mxCell id="sFHfNvW3am0BZzK_AOpW-23" value="&lt;font style=&quot;font-size: 14px;&quot;&gt;From&lt;/font&gt;" style="rounded=0;whiteSpace=wrap;html=1;fillColor=#ffcd28;gradientColor=#ffa500;strokeColor=#d79b00;" parent="sFHfNvW3am0BZzK_AOpW-27" vertex="1">
          <mxGeometry x="110" width="40" height="40" as="geometry" />
        </mxCell>
        <mxCell id="sFHfNvW3am0BZzK_AOpW-24" value="&lt;font style=&quot;font-size: 14px;&quot;&gt;To&lt;/font&gt;" style="rounded=0;whiteSpace=wrap;html=1;fillColor=#ffcd28;gradientColor=#ffa500;strokeColor=#d79b00;" parent="sFHfNvW3am0BZzK_AOpW-27" vertex="1">
          <mxGeometry x="150" width="40" height="40" as="geometry" />
        </mxCell>
        <mxCell id="sFHfNvW3am0BZzK_AOpW-29" value="&lt;b&gt;&lt;font style=&quot;font-size: 10px;&quot;&gt;&lt;i&gt;GC-Copying&lt;/i&gt;&lt;/font&gt;&lt;/b&gt;" style="rounded=0;whiteSpace=wrap;html=1;glass=1;fillColor=#f8cecc;gradientColor=#ea6b66;strokeColor=#b85450;" parent="sFHfNvW3am0BZzK_AOpW-28" vertex="1">
          <mxGeometry x="47.5" y="80" width="135" height="20" as="geometry" />
        </mxCell>
        <mxCell id="sFHfNvW3am0BZzK_AOpW-31" value="&lt;b&gt;&lt;font style=&quot;font-size: 10px;&quot;&gt;&lt;i&gt;GC-Mark-Compact&lt;/i&gt;&lt;/font&gt;&lt;/b&gt;" style="rounded=0;whiteSpace=wrap;html=1;glass=1;fillColor=#f8cecc;gradientColor=#ea6b66;strokeColor=#b85450;" parent="sFHfNvW3am0BZzK_AOpW-28" vertex="1">
          <mxGeometry x="47.5" y="185" width="135" height="20" as="geometry" />
        </mxCell>
        <mxCell id="sFHfNvW3am0BZzK_AOpW-32" value="" style="group" parent="1" vertex="1" connectable="0">
          <mxGeometry x="-20" y="-140" width="230" height="130" as="geometry" />
        </mxCell>
        <mxCell id="sFHfNvW3am0BZzK_AOpW-2" value="&lt;font style=&quot;font-size: 16px;&quot;&gt;Method Area&lt;/font&gt;" style="rounded=1;whiteSpace=wrap;html=1;fillStyle=auto;horizontal=1;verticalAlign=top;fillColor=#dae8fc;gradientColor=#7ea6e0;strokeColor=#6c8ebf;" parent="sFHfNvW3am0BZzK_AOpW-32" vertex="1">
          <mxGeometry width="230" height="130" as="geometry" />
        </mxCell>
        <mxCell id="sFHfNvW3am0BZzK_AOpW-3" value="&lt;font style=&quot;font-size: 14px;&quot;&gt;Constant Pool&lt;/font&gt;" style="rounded=1;whiteSpace=wrap;html=1;fillColor=#f5f5f5;gradientColor=#b3b3b3;strokeColor=#666666;" parent="sFHfNvW3am0BZzK_AOpW-32" vertex="1">
          <mxGeometry x="40.88235294117647" y="40" width="148.23529411764707" height="60" as="geometry" />
        </mxCell>
        <mxCell id="dyWYNJhs5rQ-Xx7Hmsq4-27" value="" style="group" vertex="1" connectable="0" parent="1">
          <mxGeometry x="460" y="-130" width="170" height="330" as="geometry" />
        </mxCell>
        <mxCell id="dyWYNJhs5rQ-Xx7Hmsq4-28" value="&lt;font style=&quot;font-size: 16px;&quot;&gt;Native Method Stack&lt;/font&gt;" style="rounded=1;whiteSpace=wrap;html=1;fillStyle=auto;horizontal=1;verticalAlign=top;fillColor=#fff2cc;gradientColor=#ffd966;strokeColor=#d6b656;" vertex="1" parent="dyWYNJhs5rQ-Xx7Hmsq4-27">
          <mxGeometry width="170" height="290" as="geometry" />
        </mxCell>
        <mxCell id="dyWYNJhs5rQ-Xx7Hmsq4-29" value="" style="group" vertex="1" connectable="0" parent="dyWYNJhs5rQ-Xx7Hmsq4-27">
          <mxGeometry x="25" y="40" width="120" height="130" as="geometry" />
        </mxCell>
        <mxCell id="dyWYNJhs5rQ-Xx7Hmsq4-30" value="&lt;span style=&quot;color: rgb(77, 81, 86); font-family: arial, sans-serif; font-size: 14px; font-style: normal; font-variant-ligatures: normal; font-variant-caps: normal; font-weight: 400; letter-spacing: normal; orphans: 2; text-align: left; text-indent: 0px; text-transform: none; widows: 2; word-spacing: 0px; -webkit-text-stroke-width: 0px; text-decoration-thickness: initial; text-decoration-style: initial; text-decoration-color: initial; float: none; display: inline !important;&quot;&gt;Stack Frame&lt;/span&gt;" style="rounded=0;whiteSpace=wrap;html=1;fillColor=#d5e8d4;gradientColor=#97d077;strokeColor=#82b366;labelBackgroundColor=none;verticalAlign=top;" vertex="1" parent="dyWYNJhs5rQ-Xx7Hmsq4-29">
          <mxGeometry width="120" height="130" as="geometry" />
        </mxCell>
        <mxCell id="dyWYNJhs5rQ-Xx7Hmsq4-31" value="" style="group;labelBackgroundColor=none;fillColor=#dae8fc;strokeColor=#6c8ebf;gradientColor=#7ea6e0;" vertex="1" connectable="0" parent="dyWYNJhs5rQ-Xx7Hmsq4-29">
          <mxGeometry x="15" y="30" width="90" height="80" as="geometry" />
        </mxCell>
        <mxCell id="dyWYNJhs5rQ-Xx7Hmsq4-32" value="&lt;div style=&quot;text-align: left;&quot;&gt;&lt;font size=&quot;1&quot; face=&quot;arial, sans-serif&quot; color=&quot;#4d5156&quot;&gt;&lt;span style=&quot;font-size: 12px;&quot;&gt;局部变量表&lt;/span&gt;&lt;/font&gt;&lt;/div&gt;" style="rounded=0;whiteSpace=wrap;html=1;labelBackgroundColor=none;fillColor=#dae8fc;strokeColor=#6c8ebf;gradientColor=#7ea6e0;" vertex="1" parent="dyWYNJhs5rQ-Xx7Hmsq4-31">
          <mxGeometry width="90" height="20" as="geometry" />
        </mxCell>
        <mxCell id="dyWYNJhs5rQ-Xx7Hmsq4-33" value="&lt;div style=&quot;text-align: left;&quot;&gt;&lt;font size=&quot;1&quot; face=&quot;arial, sans-serif&quot; color=&quot;#4d5156&quot;&gt;&lt;span style=&quot;font-size: 12px;&quot;&gt;操作数栈&lt;/span&gt;&lt;/font&gt;&lt;/div&gt;" style="rounded=0;whiteSpace=wrap;html=1;labelBackgroundColor=none;fillColor=#dae8fc;strokeColor=#6c8ebf;gradientColor=#7ea6e0;" vertex="1" parent="dyWYNJhs5rQ-Xx7Hmsq4-31">
          <mxGeometry y="20" width="90" height="20" as="geometry" />
        </mxCell>
        <mxCell id="dyWYNJhs5rQ-Xx7Hmsq4-34" value="&lt;div style=&quot;text-align: left;&quot;&gt;&lt;font size=&quot;1&quot; face=&quot;arial, sans-serif&quot; color=&quot;#4d5156&quot;&gt;&lt;span style=&quot;font-size: 12px;&quot;&gt;动态链接&lt;/span&gt;&lt;/font&gt;&lt;/div&gt;" style="rounded=0;whiteSpace=wrap;html=1;labelBackgroundColor=none;fillColor=#dae8fc;strokeColor=#6c8ebf;gradientColor=#7ea6e0;" vertex="1" parent="dyWYNJhs5rQ-Xx7Hmsq4-31">
          <mxGeometry y="40" width="90" height="20" as="geometry" />
        </mxCell>
        <mxCell id="dyWYNJhs5rQ-Xx7Hmsq4-35" value="&lt;div style=&quot;text-align: left;&quot;&gt;&lt;font size=&quot;1&quot; face=&quot;arial, sans-serif&quot; color=&quot;#4d5156&quot;&gt;&lt;span style=&quot;font-size: 12px;&quot;&gt;方法出口&lt;/span&gt;&lt;/font&gt;&lt;/div&gt;" style="rounded=0;whiteSpace=wrap;html=1;labelBackgroundColor=none;fillColor=#dae8fc;strokeColor=#6c8ebf;gradientColor=#7ea6e0;" vertex="1" parent="dyWYNJhs5rQ-Xx7Hmsq4-31">
          <mxGeometry y="60" width="90" height="20" as="geometry" />
        </mxCell>
        <mxCell id="dyWYNJhs5rQ-Xx7Hmsq4-36" value="&lt;span style=&quot;color: rgb(77, 81, 86); font-family: arial, sans-serif; font-size: 14px; font-style: normal; font-variant-ligatures: normal; font-variant-caps: normal; font-weight: 400; letter-spacing: normal; orphans: 2; text-align: left; text-indent: 0px; text-transform: none; widows: 2; word-spacing: 0px; -webkit-text-stroke-width: 0px; text-decoration-thickness: initial; text-decoration-style: initial; text-decoration-color: initial; float: none; display: inline !important;&quot;&gt;Stack Frame&lt;/span&gt;" style="rounded=0;whiteSpace=wrap;html=1;fillColor=#d5e8d4;gradientColor=#97d077;strokeColor=#82b366;labelBackgroundColor=none;verticalAlign=top;" vertex="1" parent="dyWYNJhs5rQ-Xx7Hmsq4-27">
          <mxGeometry x="25" y="170" width="120" height="30" as="geometry" />
        </mxCell>
        <mxCell id="dyWYNJhs5rQ-Xx7Hmsq4-37" value="&lt;span style=&quot;color: rgb(77, 81, 86); font-family: arial, sans-serif; font-size: 14px; font-style: normal; font-variant-ligatures: normal; font-variant-caps: normal; font-weight: 400; letter-spacing: normal; orphans: 2; text-align: left; text-indent: 0px; text-transform: none; widows: 2; word-spacing: 0px; -webkit-text-stroke-width: 0px; text-decoration-thickness: initial; text-decoration-style: initial; text-decoration-color: initial; float: none; display: inline !important;&quot;&gt;Stack Frame&lt;/span&gt;" style="rounded=0;whiteSpace=wrap;html=1;fillColor=#d5e8d4;gradientColor=#97d077;strokeColor=#82b366;labelBackgroundColor=none;verticalAlign=top;" vertex="1" parent="dyWYNJhs5rQ-Xx7Hmsq4-27">
          <mxGeometry x="25" y="200" width="120" height="30" as="geometry" />
        </mxCell>
        <mxCell id="dyWYNJhs5rQ-Xx7Hmsq4-38" value="&lt;span style=&quot;color: rgb(77, 81, 86); font-family: arial, sans-serif; font-size: 14px; font-style: normal; font-variant-ligatures: normal; font-variant-caps: normal; font-weight: 400; letter-spacing: normal; orphans: 2; text-align: left; text-indent: 0px; text-transform: none; widows: 2; word-spacing: 0px; -webkit-text-stroke-width: 0px; text-decoration-thickness: initial; text-decoration-style: initial; text-decoration-color: initial; float: none; display: inline !important;&quot;&gt;Stack Frame&lt;/span&gt;" style="rounded=0;whiteSpace=wrap;html=1;fillColor=#d5e8d4;gradientColor=#97d077;strokeColor=#82b366;labelBackgroundColor=none;verticalAlign=top;" vertex="1" parent="dyWYNJhs5rQ-Xx7Hmsq4-27">
          <mxGeometry x="25" y="230" width="120" height="30" as="geometry" />
        </mxCell>
      </root>
    </mxGraphModel>
  </diagram>
</mxfile>
